<?xml version="1.0" encoding="utf-8"?>
<!-- Generator: Adobe Illustrator 19.2.1, SVG Export Plug-In . SVG Version: 6.00 Build 0)  -->
<svg version="1.1" id="Capa_1" xmlns="http://www.w3.org/2000/svg" xmlns:xlink="http://www.w3.org/1999/xlink" x="0px" y="0px"
	 viewBox="0 0 319 448.5" style="enable-background:new 0 0 319 448.5;" xml:space="preserve">
<style type="text/css">
	.st0{fill:none;stroke:#B6B6B6;stroke-miterlimit:10;}
	.st1{fill:#FFFFFF;}
	.st2{fill:#E9E9E9;}
	.st3{fill:#00AFAA;}
</style>
<g>
	<g>
		<g>
			<g>
				<g>
					<line class="st0" x1="156.6" y1="427.9" x2="123.7" y2="403.4"/>
					<g>
						<path class="st1" d="M125,406.8c2.2,0.3,3.8-1.9,3-3.9c-4.2-10.2-18.4-35.5-59.6-52.9c-34.3-14.5-51.7-21.9-59.7-25.2
							c-2.3-1-4.6,1.2-3.8,3.6c5,14,19.2,48.5,41.6,59.4C70,399.1,111.3,405.1,125,406.8z"/>
						<path class="st0" d="M9.6,329.4c0,0,39.9,40.4,114.9,74.2"/>
					</g>
				</g>
				<g>
					<line class="st0" x1="157.3" y1="356.1" x2="132.5" y2="334.7"/>
					<g>
						<path class="st1" d="M133.8,338.1c2.2,0.3,3.8-1.9,3-3.9c-4.2-10.2-18.4-35.5-59.6-52.9C43,266.8,25.6,259.4,17.6,256
							c-2.3-1-4.6,1.2-3.8,3.6c5,14,19.2,48.5,41.6,59.4C78.9,330.4,120.1,336.3,133.8,338.1z"/>
						<path class="st0" d="M18.4,260.7c0,0,39.9,40.4,114.9,74.2"/>
					</g>
				</g>
				<g>
					<line class="st0" x1="156.9" y1="291.4" x2="127.9" y2="268.3"/>
					<g>
						<path class="st1" d="M128.8,271.7c2.1,0.5,4-1.5,3.4-3.6c-3.1-10.5-14.6-37.2-53.8-58.8c-32.6-18-49.2-27.1-56.8-31.3
							c-2.2-1.2-4.7,0.8-4.2,3.2c3.5,14.5,14.1,50.2,35.3,63.3C74.9,258.4,115.3,268.6,128.8,271.7z"/>
						<path class="st0" d="M22,182.9c0,0,35.5,44.3,106.6,85.6"/>
					</g>
				</g>
				<g>
					<line class="st0" x1="157.4" y1="236.9" x2="140" y2="205.7"/>
					<g>
						<path class="st1" d="M139.6,209.3c1.8,1.2,4.3,0,4.4-2.2c0.7-11-0.8-39.9-30.1-73.7c-24.4-28.1-36.8-42.4-42.4-49
							c-1.6-1.9-4.7-0.9-5,1.5c-1.7,14.8-4.1,52,11.1,71.6C93.7,178.1,128.1,201.7,139.6,209.3z"/>
						<path class="st0" d="M70.2,89c0,0,17.9,53.8,70.3,117.2"/>
					</g>
				</g>
				<g>
					<polyline class="st0" points="164.7,152.1 157.7,175 156.5,448.5 					"/>
					<g>
						<path class="st1" d="M162.1,154.7c0.7,2.1,3.3,2.7,4.8,1.1c7.5-8,24.7-31.4,23.4-76.1c-1.1-37.2-1.6-56.1-1.9-64.7
							c-0.1-2.5-3.1-3.7-4.8-2c-10.7,10.4-36.1,37.6-36.7,62.5C146.3,101.5,158,141.5,162.1,154.7z"/>
						<path class="st0" d="M184.6,17.7c0,0-20.2,53-19.7,135.1"/>
					</g>
				</g>
			</g>
			<g>
				<g>
					<line class="st0" x1="156.5" y1="433.4" x2="192.4" y2="413.2"/>
					<g>
						<path class="st1" d="M191,416.5c-2.2,0.2-3.8-2-2.9-4c4.6-10,19.7-34.7,61.6-50.5c34.8-13.1,52.5-19.8,60.6-22.8
							c2.3-0.9,4.6,1.4,3.7,3.7c-5.5,13.8-21.1,47.7-43.9,57.7C246.2,411,204.7,415.3,191,416.5z"/>
						<path class="st0" d="M309.3,343.8c0,0-41.4,38.8-117.7,69.5"/>
					</g>
				</g>
				<g>
					<line class="st0" x1="156.8" y1="365.2" x2="186.2" y2="344.1"/>
					<g>
						<path class="st1" d="M184.8,347.5c-2.2,0.2-3.8-2-2.9-4c4.6-10,19.7-34.7,61.6-50.5c34.8-13.1,52.5-19.8,60.6-22.8
							c2.3-0.9,4.6,1.4,3.7,3.7c-5.5,13.8-21.1,47.7-43.9,57.7C240,341.9,198.6,346.3,184.8,347.5z"/>
						<path class="st0" d="M303.1,274.8c0,0-41.4,38.8-117.7,69.5"/>
					</g>
				</g>
				<g>
					<line class="st0" x1="156.6" y1="305.1" x2="193.5" y2="277.9"/>
					<g>
						<path class="st1" d="M192.4,281.4c-2.1,0.4-4-1.6-3.3-3.7c3.5-10.4,16-36.6,56-56.6c33.3-16.6,50.2-25.1,57.9-29
							c2.2-1.1,4.7,0.9,4,3.3c-4.1,14.3-16.1,49.6-37.7,61.9C246.8,270.2,206,278.8,192.4,281.4z"/>
						<path class="st0" d="M302.6,196.8c0,0-37.2,42.8-109.8,81.3"/>
					</g>
				</g>
				<g>
					<line class="st0" x1="157.5" y1="229.1" x2="177.2" y2="198.6"/>
					<g>
						<path class="st1" d="M177.5,202.8c-2.2,1.3-5-0.2-5.1-2.7c-0.3-12.8,2.7-46.5,38.4-84.5c29.7-31.6,44.7-47.7,51.6-55.1
							c2-2.1,5.5-0.9,5.7,2c1.3,17.3,2.5,60.7-16.2,82.9C232.4,168.7,191.3,194.5,177.5,202.8z"/>
						<path class="st2" d="M176.6,199.2c63.9-71.4,87.2-133.3,87.2-133.3"/>
					</g>
				</g>
			</g>
		</g>
	</g>
	<g>
		<path class="st3" d="M262.5,60.5c-6.9,7.4-22,23.4-51.6,55.1c-35.6,38-38.7,71.7-38.4,84.5c0,1.2,0.7,2.1,1.5,2.7l-16,24.6
			l0.2-52.4l5.7-18.5c1,0.4,2.2,0.2,3.1-0.7c7.5-8,24.7-31.4,23.4-76.1c-1.1-37.2-1.6-56.1-1.9-64.7c-0.1-2.5-3.1-3.7-4.8-2
			c-10.7,10.4-36.1,37.6-36.7,62.5c-0.6,26,11.1,66,15.2,79.2c0.2,0.5,0.5,1,0.8,1.3l-5.8,18.9l-0.3,60.2l-14.3-25.7
			c0.8-0.4,1.4-1.2,1.5-2.3c0.7-11-0.8-39.9-30.1-73.7c-24.4-28.1-36.8-42.4-42.4-49c-1.6-1.9-4.7-0.9-5,1.5
			c-1.7,14.8-4.1,52,11.1,71.6c16,20.6,50.4,44.1,61.9,51.7c0.6,0.4,1.3,0.5,2,0.4l15.3,27.4l-0.2,53.6l-25-20
			c0.5-0.7,0.7-1.6,0.5-2.5c-3.1-10.5-14.6-37.2-53.8-58.8c-32.6-18-49.2-27.1-56.8-31.3c-2.2-1.2-4.7,0.8-4.2,3.2
			c3.5,14.5,14.1,50.2,35.3,63.3c22.1,13.8,62.5,24,76,27.1c0.8,0.2,1.6,0,2.2-0.4l25.6,20.5l0.1-0.2l-0.1,12.8l-0.3,0.2l0.3,0.4
			l-0.2,49.7l-20.2-17.5c0.7-0.8,1.1-1.9,0.6-3.1c-4.2-10.2-18.4-35.5-59.6-52.9C43,266.8,25.6,259.4,17.6,256
			c-2.3-1-4.6,1.2-3.8,3.6c5,14,19.2,48.5,41.6,59.4c23.4,11.4,64.7,17.4,78.4,19.1c0.6,0.1,1.1,0,1.6-0.2l21,18.2l-0.3,70.8
			l-28.5-21.1c0.6-0.8,0.8-1.8,0.4-2.8c-4.2-10.2-18.4-35.5-59.6-52.9c-34.3-14.5-51.7-21.9-59.7-25.2c-2.3-1-4.6,1.2-3.8,3.6
			c5,14,19.2,48.5,41.6,59.4c23.4,11.4,64.7,17.4,78.4,19.1c0.7,0.1,1.3-0.1,1.9-0.4l29.2,21.7l-0.1,20.4l1,0l0.1-14.8l31.8-17.9
			c0.6,0.5,1.3,0.8,2.2,0.7c13.8-1.2,55.2-5.5,79.1-16c22.8-10,38.4-43.8,43.9-57.7c0.9-2.3-1.3-4.6-3.7-3.7
			c-8.1,3-25.8,9.7-60.6,22.8c-41.8,15.8-57,40.5-61.6,50.5c-0.4,0.9-0.3,1.7,0.1,2.5L157,432.6l0.3-67.1l25.7-18.4
			c0.5,0.3,1.1,0.5,1.8,0.4c13.8-1.2,55.2-5.5,79.1-16c22.8-10,38.4-43.8,43.9-57.7c0.9-2.3-1.3-4.6-3.7-3.7
			c-8.1,3-25.8,9.7-60.6,22.8c-41.8,15.8-57,40.5-61.6,50.5c-0.5,1-0.3,2.1,0.3,2.9l-24.9,17.9l0-8.2l0.2-0.2l-0.2-0.2l0.2-50.6
			l32.7-24c0.6,0.4,1.4,0.6,2.2,0.5c13.6-2.6,54.4-11.2,77-24c21.7-12.3,33.6-47.6,37.7-61.9c0.7-2.4-1.8-4.5-4-3.3
			c-7.7,3.9-24.7,12.3-57.9,29c-40,20-52.5,46.2-56,56.6c-0.3,0.9-0.1,1.8,0.4,2.5l-31.9,23.5l0.3-74.5l16.9-26
			c0.8,0.2,1.8,0.1,2.6-0.4c13.8-8.3,54.9-34.2,74.5-57.4c18.7-22.2,17.6-65.6,16.2-82.9C268,59.7,264.4,58.4,262.5,60.5z"/>
	</g>
</g>
</svg>
