<?xml version="1.0" encoding="utf-8"?>
<!-- Generator: Adobe Illustrator 19.2.1, SVG Export Plug-In . SVG Version: 6.00 Build 0)  -->
<svg version="1.1" id="Capa_1" xmlns="http://www.w3.org/2000/svg" xmlns:xlink="http://www.w3.org/1999/xlink" x="0px" y="0px"
	 viewBox="0 0 24.3 17.6" style="enable-background:new 0 0 24.3 17.6;" xml:space="preserve">
<style type="text/css">
	.st0{fill:#FFFFFF;}
</style>
<g>
	<path class="st0" d="M14.1,8.5l-3.6-2.3c-0.1-0.1-0.2-0.1-0.3,0C10.1,6.3,10,6.4,10,6.5v4.6c0,0.1,0.1,0.2,0.2,0.3c0,0,0.1,0,0.2,0
		c0.1,0,0.1,0,0.2-0.1l3.6-2.3c0.1-0.1,0.2-0.2,0.2-0.3C14.3,8.7,14.2,8.6,14.1,8.5L14.1,8.5z M10.7,10.5V7.1l2.7,1.7L10.7,10.5z
		 M10.7,10.5"/>
	<path class="st0" d="M23.2,1.2H1.1c-0.2,0-0.4,0.2-0.4,0.4V16c0,0.2,0.2,0.4,0.4,0.4h22.1c0.2,0,0.4-0.2,0.4-0.4V1.6
		C23.6,1.4,23.4,1.2,23.2,1.2L23.2,1.2z M4.7,5.4H1.5V2h3.2V5.4z M1.5,6.2h3.2v5.1H1.5V6.2z M5.5,11.6V2h13.4v13.6H5.5V11.6z
		 M22.8,5.4h-3.2V2h3.2V5.4z M19.7,6.2h3.2v5.1h-3.2V6.2z M1.5,15.6V12h3.2v3.6H1.5z M22.8,15.6h-3.2V12h3.2V15.6z M22.8,15.6"/>
</g>
</svg>
