<?xml version="1.0" encoding="utf-8"?>
<!-- Generator: Adobe Illustrator 19.2.1, SVG Export Plug-In . SVG Version: 6.00 Build 0)  -->
<svg version="1.1" id="Capa_1" xmlns="http://www.w3.org/2000/svg" xmlns:xlink="http://www.w3.org/1999/xlink" x="0px" y="0px"
	 viewBox="0 0 33.5 33.5" style="enable-background:new 0 0 33.5 33.5;" xml:space="preserve">
<style type="text/css">
	.st0{fill:#FFFFFF;}
</style>
<g>
	<path class="st0" d="M9.2,6.6c0.3,0,0.5-0.1,0.8-0.2c1.2-0.8,2.6-1.3,4-1.6c0.8-0.2,1.3-1,1.2-1.8c-0.2-0.8-1-1.3-1.8-1.2
		c-1.8,0.4-3.4,1.1-5,2C7.7,4.3,7.5,5.2,8,5.9C8.2,6.3,8.7,6.6,9.2,6.6z"/>
	<path class="st0" d="M2.8,15.7c0.1,0,0.2,0,0.3,0c0.7,0,1.3-0.5,1.5-1.2c0.3-1.6,0.9-3,1.7-4.4C6.7,9.4,6.5,8.5,5.8,8
		C5.1,7.6,4.2,7.8,3.7,8.5C2.6,10.2,1.9,12,1.5,14C1.4,14.8,1.9,15.5,2.8,15.7z"/>
	<path class="st0" d="M4.6,19.2c-0.2-0.8-0.9-1.3-1.8-1.2C2,18.2,1.5,19,1.6,19.9c0.4,1.9,1.1,3.7,2.2,5.4c0.3,0.4,0.8,0.7,1.2,0.7
		c0.3,0,0.6-0.1,0.8-0.2c0.7-0.5,0.9-1.4,0.4-2.1C5.5,22.3,4.9,20.8,4.6,19.2z"/>
	<path class="st0" d="M13.9,28.8c-1.4-0.3-2.7-0.9-4-1.7c-0.7-0.5-1.6-0.2-2.1,0.5s-0.2,1.6,0.5,2.1c1.5,1,3.2,1.7,4.9,2.1
		c0.1,0,0.2,0,0.3,0c0.7,0,1.3-0.5,1.5-1.2C15.2,29.8,14.7,29,13.9,28.8z"/>
	<path class="st0" d="M20.2,1.8c-0.8-0.2-1.6,0.3-1.8,1.1c-0.2,0.8,0.3,1.6,1.1,1.8c5.6,1.4,9.5,6.3,9.5,12c0,5.6-3.8,10.5-9.2,12
		c-0.8,0.2-1.3,1-1.1,1.8c0.2,0.7,0.8,1.1,1.4,1.1c0.1,0,0.2,0,0.4-0.1C27.3,29.8,32,23.7,32,16.7C32,9.6,27.1,3.5,20.2,1.8z"/>
	<path class="st0" d="M23.4,11.5c-0.5-0.5-1.2-0.5-1.6,0l-7.4,7.2l-2.9-2.8c-0.5-0.5-1.2-0.4-1.6,0c-0.5,0.5-0.4,1.2,0,1.6l3.7,3.6
		c0.2,0.2,0.5,0.3,0.8,0.3c0.3,0,0.6-0.1,0.8-0.3l8.2-8C23.8,12.7,23.8,12,23.4,11.5z"/>
</g>
</svg>
