<?xml version="1.0" encoding="utf-8"?>
<!-- Generator: Adobe Illustrator 19.2.1, SVG Export Plug-In . SVG Version: 6.00 Build 0)  -->
<svg version="1.1" id="Capa_1" xmlns="http://www.w3.org/2000/svg" xmlns:xlink="http://www.w3.org/1999/xlink" x="0px" y="0px"
	 viewBox="0 0 21 33" style="enable-background:new 0 0 21 33;" xml:space="preserve">
<style type="text/css">
	.st0{fill:#FFFFFF;}
</style>
<g>
	<path class="st0" d="M7.6,22.4c-0.1-0.1-0.1-0.2-0.1-0.4v-1.3c0-1.4,0.3-2.5,1-3.4c0.6-0.9,1.6-1.8,2.8-2.7c1-0.8,1.7-1.4,2.2-2
		c0.5-0.6,0.7-1.3,0.7-2.1c0-0.9-0.3-1.6-0.8-2.2c-0.5-0.5-1.3-0.8-2.2-0.8c-1,0-1.8,0.3-2.4,0.9c-0.6,0.6-0.9,1.3-0.9,2.3v0.7
		c0,0.3-0.2,0.5-0.5,0.5l-4.9-0.2c-0.1,0-0.3,0-0.4-0.1C2,11.3,1.9,11.2,1.9,11v-0.4c0-1.7,0.4-3.2,1.2-4.5c0.8-1.3,1.9-2.3,3.3-3
		C7.9,2.4,9.5,2,11.3,2c2.7,0,4.9,0.8,6.5,2.3c1.6,1.5,2.4,3.5,2.4,6c0,1.2-0.2,2.3-0.6,3.2c-0.4,0.9-0.9,1.6-1.4,2.2
		c-0.6,0.6-1.3,1.2-2.1,1.9c-0.9,0.7-1.6,1.3-2,1.8s-0.6,1.1-0.6,1.9v1c0,0.1,0,0.3-0.1,0.4c-0.1,0.1-0.2,0.1-0.4,0.1H8
		C7.8,22.6,7.7,22.5,7.6,22.4z M8,31.1C7.3,30.4,7,29.6,7,28.7c0-1,0.3-1.7,0.9-2.4c0.6-0.6,1.4-0.9,2.4-0.9c1,0,1.8,0.3,2.4,0.9
		c0.6,0.6,0.9,1.4,0.9,2.4c0,1-0.3,1.7-0.9,2.4c-0.6,0.6-1.4,0.9-2.4,0.9C9.4,32,8.6,31.7,8,31.1z"/>
</g>
</svg>
